<?xml version="1.0" standalone="no"?>
<!DOCTYPE svg PUBLIC "-//W3C//DTD SVG 20010904//EN"
 "http://www.w3.org/TR/2001/REC-SVG-20010904/DTD/svg10.dtd">
<svg version="1.0" xmlns="http://www.w3.org/2000/svg"
 width="512.000000pt" height="512.000000pt" viewBox="0 0 512.000000 512.000000"
 preserveAspectRatio="xMidYMid meet">
<metadata>
Created by potrace 1.14, written by Peter Selinger 2001-2017
</metadata>
<g transform="translate(0.000000,512.000000) scale(0.100000,-0.100000)"
fill="#000000" stroke="none">
<path d="M765 5043 c-203 -24 -348 -94 -475 -230 -118 -127 -172 -261 -190
-473 -13 -158 -13 -3419 0 -3569 13 -148 31 -214 87 -331 38 -79 59 -108 132
-181 73 -73 102 -94 182 -133 181 -88 7 -81 2074 -81 2071 0 1899 -7 2078 82
77 38 107 61 182 137 73 73 99 107 132 176 23 47 49 112 57 145 34 129 37 333
33 2070 -4 1863 -1 1778 -60 1923 -41 102 -88 172 -168 252 -116 117 -268 188
-449 210 -78 9 -3536 13 -3615 3z m2380 -1112 c181 -32 385 -101 598 -201 l67
-32 0 -344 0 -344 -34 0 c-27 0 -53 15 -123 68 -244 189 -422 277 -640 318
-119 22 -335 15 -446 -15 -435 -116 -673 -538 -617 -1096 46 -464 269 -731
689 -826 95 -21 339 -36 414 -25 l47 7 0 290 0 289 -285 0 -285 0 0 275 0 275
645 0 645 0 0 -724 0 -724 -67 -26 c-181 -68 -486 -147 -684 -176 -809 -119
-1435 142 -1724 719 -185 370 -217 948 -75 1374 66 198 164 358 312 512 230
240 508 373 878 421 158 20 530 12 685 -15z"/>
</g>
</svg>
